<svg xmlns="http://www.w3.org/2000/svg" width="160" height="39" fill="none"><path fill="#254741" d="M39.124 14.127 21.827.512a2.638 2.638 0 0 0-3.192 0L11.428 6.04c-.309-1.126-1.235-1.842-2.47-1.842-1.442 0-2.575 1.126-2.575 2.559V9.93L1.03 14.024c-1.132.82-1.338 2.457-.515 3.583.515.614 1.236 1.024 2.06 1.024.514 0 1.132-.205 1.544-.512L20.18 5.835 35.83 18.12c1.132.921 2.78.716 3.603-.41.927-1.126.824-2.763-.309-3.582ZM12.767 26.41c0 1.433 1.133 2.559 2.574 2.559h3.5v-6.04h-6.074v3.48Z"/><path fill="#254741" d="M27.696 16.685c0-1.433-1.132-2.559-2.574-2.559h-3.5v6.04h6.074v-3.481ZM18.945 14.126h-3.501c-1.441 0-2.574 1.126-2.574 2.559v3.48h6.075v-6.039Z"/><path fill="#03B766" d="M7.31 30.3c-.206.101-.412.204-.618.204.103.512.206.921.412 1.433 1.956 5.527 8.134 8.394 13.694 6.449.206-.103.412-.205.618-.205a7.504 7.504 0 0 0-.412-1.433c-1.956-5.528-8.031-8.394-13.694-6.449ZM36.963 22.11c-8.443 0-15.341 6.859-15.341 15.252v.614l9.678-8.29-9.164 8.7c.515.102 1.03.102 1.648.102 8.443 0 15.34-6.858 15.34-15.252v-.92c-.72-.103-1.44-.206-2.161-.206Z"/><path fill="#254741" d="M27.696 22.93h-6.074v6.039a14.366 14.366 0 0 1 6.074-6.04ZM61.982 16.07l-7.104 7.985h7.619c.618 0 1.132.102 1.441.41.31.307.515.614.515 1.126 0 .409-.206.819-.515 1.023-.309.307-.823.41-1.441.41H51.892c-.72 0-1.339-.205-1.648-.512-.411-.307-.514-.717-.514-1.33 0-.308.103-.717.412-1.024.308-.308.823-.922 1.647-1.843.824-.921 1.647-1.843 2.368-2.56.72-.818 1.339-1.534 1.956-2.149.618-.716 1.133-1.228 1.545-1.74.411-.512.72-.819.926-1.228h-5.766a7.715 7.715 0 0 1-1.853-.205c-.412-.102-.618-.512-.618-1.126 0-.41.206-.819.515-1.024.31-.307.721-.409 1.339-.409h8.957c.824 0 1.442.102 1.957.41.411.204.617.716.617 1.33 0 .205 0 .41-.103.614-.103.205-.206.41-.308.512-.103.102-.206.307-.412.512-.515.307-.721.512-.927.819ZM76.5 25.181a13.15 13.15 0 0 1-2.78 1.638c-.927.41-1.854.512-2.986.512-1.03 0-1.854-.205-2.677-.614-.721-.41-1.339-.921-1.75-1.638-.413-.717-.618-1.433-.618-2.15 0-1.023.309-1.944 1.03-2.763.72-.717 1.647-1.229 2.78-1.536.205-.102.823-.205 1.852-.41 1.03-.204 1.854-.409 2.574-.511.721-.205 1.442-.41 2.266-.614 0-1.024-.206-1.74-.618-2.252-.412-.512-1.133-.717-2.265-.717-1.03 0-1.75.103-2.266.41a3.54 3.54 0 0 0-1.235 1.228c-.309.512-.618.921-.72 1.126-.104.205-.516.307-.927.307-.412 0-.824-.102-1.133-.41-.309-.306-.515-.614-.515-1.023 0-.716.206-1.33.721-1.945.515-.614 1.236-1.126 2.265-1.638 1.03-.41 2.265-.614 3.81-.614 1.75 0 3.088.205 4.015.614 1.03.41 1.647 1.024 2.06 1.945.411.921.617 2.047.617 3.48v4.505c0 .716.103 1.535.412 2.251.309.717.412 1.331.412 1.536 0 .41-.206.716-.515 1.126-.309.41-.824.512-1.236.512-.411 0-.823-.205-1.235-.512-.515-.512-.927-1.126-1.339-1.843Zm-.31-5.527c-.617.204-1.44.41-2.47.614-1.133.205-1.854.41-2.266.512-.411.102-.823.307-1.235.614-.412.307-.618.716-.618 1.33 0 .615.206 1.127.72 1.536.413.41 1.03.614 1.751.614.72 0 1.441-.204 2.162-.512a3.628 3.628 0 0 0 1.442-1.33c.309-.512.514-1.536.514-2.866v-.512ZM97.915 14.433v11.26c0 1.33-.103 2.354-.412 3.276-.309.92-.72 1.74-1.338 2.252-.618.614-1.442 1.023-2.368 1.33-.927.307-2.162.41-3.707.41-1.338 0-2.574-.205-3.603-.512-1.03-.307-1.854-.819-2.472-1.433-.617-.614-.823-1.228-.823-1.843 0-.511.206-.818.515-1.126.308-.307.72-.41 1.132-.41.618 0 1.03.206 1.544.718.206.204.412.511.618.818.206.308.515.512.721.717.206.205.618.307 1.03.41.411.102.823.102 1.338.102 1.03 0 1.75-.103 2.368-.41.515-.307.927-.716 1.133-1.126.206-.511.309-1.023.412-1.637 0-.615.103-1.536.103-2.764-.618.819-1.339 1.433-2.06 1.945-.72.511-1.75.614-2.78.614-1.338 0-2.47-.307-3.397-1.024-.927-.614-1.75-1.638-2.265-2.764a10.38 10.38 0 0 1-.824-4.094c0-1.126.206-2.252.515-3.173a7.439 7.439 0 0 1 1.338-2.355c.618-.614 1.236-1.126 2.06-1.433a6.78 6.78 0 0 1 2.573-.512c1.133 0 2.06.205 2.883.615.824.41 1.545 1.126 2.265 1.944v-.511c0-.717.206-1.229.515-1.536.31-.41.72-.512 1.236-.512.72 0 1.235.205 1.544.717.103.512.206 1.228.206 2.047ZM86.692 19.45c0 1.535.31 2.764 1.03 3.583.72.819 1.544 1.228 2.677 1.228.618 0 1.236-.205 1.853-.512.618-.307 1.03-.819 1.442-1.535.412-.717.514-1.536.514-2.56 0-1.535-.308-2.763-1.03-3.684-.72-.922-1.647-1.331-2.779-1.331-1.133 0-2.06.41-2.677 1.228-.72.82-1.03 1.945-1.03 3.583ZM112.638 25.181v-.41c-.514.615-1.029 1.127-1.544 1.434-.515.41-1.03.614-1.647.819a6.032 6.032 0 0 1-1.957.307 5.61 5.61 0 0 1-2.574-.614c-.823-.41-1.441-.922-2.059-1.638-.618-.717-1.029-1.638-1.338-2.56-.309-1.023-.412-2.046-.412-3.172 0-2.457.618-4.3 1.75-5.63 1.236-1.331 2.78-2.048 4.736-2.048 1.133 0 2.06.205 2.883.614.824.41 1.545 1.024 2.265 1.74V8.292c0-.818.206-1.433.515-1.842.309-.41.824-.614 1.339-.614.617 0 1.029.204 1.338.512.309.409.515.92.515 1.637V25.08c0 .716-.206 1.33-.515 1.638-.309.41-.824.511-1.338.511-.515 0-.927-.204-1.339-.614-.412-.41-.618-.716-.618-1.433Zm-7.722-5.732c0 1.023.206 1.945.515 2.661.309.717.824 1.331 1.339 1.638.617.41 1.235.512 1.853.512a3.57 3.57 0 0 0 1.853-.512c.618-.307 1.03-.921 1.339-1.638.309-.716.514-1.637.514-2.764 0-1.023-.205-1.944-.514-2.66a4.643 4.643 0 0 0-1.339-1.741c-.618-.41-1.235-.614-1.853-.614-.721 0-1.339.205-1.956.614a4.643 4.643 0 0 0-1.339 1.74c-.206.921-.412 1.843-.412 2.764ZM134.775 19.551c0 1.126-.206 2.252-.515 3.174a8.959 8.959 0 0 1-1.544 2.559c-.618.716-1.545 1.228-2.471 1.637-.927.41-2.06.512-3.192.512-1.133 0-2.265-.204-3.192-.614-.927-.41-1.75-.921-2.471-1.638a6.204 6.204 0 0 1-1.544-2.456 10.249 10.249 0 0 1-.515-3.174c0-1.126.206-2.252.515-3.275.411-1.024.926-1.843 1.544-2.457.618-.614 1.544-1.228 2.471-1.638.927-.41 2.059-.512 3.192-.512 1.132 0 2.265.205 3.192.615.926.41 1.75.92 2.471 1.637a6.226 6.226 0 0 1 1.544 2.457c.412.921.515 1.945.515 3.173Zm-3.913 0c0-1.535-.309-2.763-1.029-3.685-.721-.921-1.648-1.33-2.78-1.33-.721 0-1.442.204-2.059.614-.618.41-1.03 1.023-1.339 1.74-.309.819-.515 1.638-.515 2.661 0 1.024.206 1.945.515 2.662.309.716.721 1.33 1.339 1.74.617.41 1.235.614 2.059.614 1.132 0 2.162-.41 2.78-1.33.72-.922 1.029-2.15 1.029-3.686ZM150.837 19.858v5.119c0 .818-.206 1.433-.515 1.842-.412.41-.824.614-1.442.614-.617 0-1.029-.204-1.441-.614-.412-.41-.515-1.024-.515-1.842v-6.142c0-1.024 0-1.74-.103-2.252-.103-.512-.206-1.024-.515-1.33-.309-.308-.72-.513-1.441-.513-1.236 0-2.162.41-2.574 1.331-.412.921-.618 2.15-.618 3.787v5.22c0 .82-.206 1.434-.515 1.843-.309.41-.823.615-1.441.615-.618 0-1.03-.205-1.442-.615-.411-.409-.514-1.023-.514-1.842V13.92c0-.716.206-1.33.514-1.637.309-.308.824-.615 1.339-.615s1.029.205 1.338.512c.309.307.515.82.515 1.433v.41c.721-.82 1.442-1.433 2.162-1.74a5.612 5.612 0 0 1 2.574-.615c1.03 0 1.854.205 2.574.615.721.41 1.236 1.023 1.751 1.74.617-.82 1.338-1.433 2.162-1.74.721-.41 1.544-.615 2.471-.615 1.029 0 1.956.205 2.78.615a4.742 4.742 0 0 1 1.75 1.74c.309.716.515 1.842.515 3.275v7.575c0 .82-.206 1.433-.515 1.843-.412.41-.824.614-1.441.614-.618 0-1.03-.205-1.442-.614-.412-.41-.515-1.024-.515-1.843v-6.449c0-.819 0-1.535-.103-2.047-.102-.512-.308-.921-.617-1.228-.309-.307-.824-.512-1.442-.512-.515 0-1.029.102-1.441.41-.412.306-.824.716-1.03 1.228-.618.716-.823 1.842-.823 3.582Z"/></svg>